PathFileType	4	(X/Y/Z)	OpenSim_Sub09_CSStiffKnee_Magnet.trc
DataRate	CameraRate	NumFrames	NumMarkers	Units	OrigDataRate	OrigDataStartFrame	OrigNumFrames
100	100	36	8	m	100	5346	7127
Frame#	Time	torso_imu_offset_imu	pelvis_imu_offset_imu	tibia_r_imu_offset_imu	femur_r_imu_offset_imu	tibia_l_imu_offset_imu	femur_l_imu_offset_imu	toes_r_imu_offset_imu	toes_l_imu_offset_imu
				X1	Y1	Z1	X2	Y2	Z2	X3	Y3	Z3	X4	Y4	Z4	X5	Y5	Z5	X6	Y6	Z6	X7	Y7	Z7	X8		Y8	Z8	

5346	53.45000000	-0.87217341	-0.38110584	0.04698106	-0.56344466	0.43462214	-0.66975719	-0.68805932	-0.45062297	-0.34997256	-0.82956279	-0.22326303	-0.17243346	-0.53292194	0.59652582	0.28678643	-0.53285755	0.20885173	0.40540190	-0.59112439	-0.05538143	-0.54628604	-0.77904723	-0.16174270	-0.29242315
5347	53.46000000	-0.87157893	-0.38115788	0.05326040	-0.56259297	0.43118731	-0.66963404	-0.69853731	-0.43980434	-0.35263175	-0.82879725	-0.21707027	-0.17303934	-0.52668341	0.60896151	0.28323056	-0.53339204	0.21297180	0.40806261	-0.58043481	-0.05206190	-0.55497405	-0.78249265	-0.15806901	-0.28643963
5348	53.47000000	-0.87159628	-0.38145887	0.05979931	-0.55720859	0.43155220	-0.67269307	-0.70541920	-0.42258362	-0.36509667	-0.83022967	-0.21464522	-0.16296692	-0.52312964	0.61197814	0.27861009	-0.52993995	0.21653448	0.40912295	-0.56654967	-0.04927743	-0.56943215	-0.78479274	-0.15336647	-0.28650886
5349	53.48000000	-0.87323582	-0.37480052	0.06271069	-0.55057282	0.42348119	-0.67769946	-0.71506524	-0.40973851	-0.35729502	-0.82841405	-0.21472558	-0.15593392	-0.51769044	0.61890418	0.27260665	-0.52345513	0.22628261	0.40781356	-0.55384933	-0.03939097	-0.57978199	-0.78559595	-0.14548606	-0.28496107
5350	53.49000000	-0.87569691	-0.37565832	0.07165448	-0.55375969	0.42192669	-0.68019388	-0.71988475	-0.39658743	-0.36050715	-0.83404272	-0.21121179	-0.15379146	-0.51909637	0.63120897	0.27510843	-0.52690144	0.23418310	0.39657233	-0.54681187	-0.03541123	-0.58637883	-0.78694640	-0.14378439	-0.29005312
5351	53.50000000	-0.87667594	-0.37014356	0.07204053	-0.55175067	0.41597492	-0.68541425	-0.72494899	-0.38421328	-0.35466422	-0.82962408	-0.21043867	-0.15128650	-0.50495859	0.63917600	0.27234840	-0.52701667	0.24217463	0.39233519	-0.53602774	-0.02905058	-0.59203320	-0.79163754	-0.13222111	-0.28940164
5352	53.51000000	-0.87514382	-0.36436201	0.07280468	-0.54914538	0.41029508	-0.69294327	-0.73011785	-0.37749107	-0.35212259	-0.83533086	-0.20695213	-0.14942715	-0.49750416	0.64309923	0.27066957	-0.52502364	0.24814031	0.38631283	-0.52772061	-0.02270554	-0.60237952	-0.79467268	-0.12872384	-0.28398627
5353	53.52000000	-0.87394676	-0.35797695	0.08212618	-0.55180925	0.40475291	-0.69631958	-0.73611869	-0.36885887	-0.35469558	-0.83115971	-0.20761778	-0.14570417	-0.49554242	0.65283749	0.26624764	-0.51896900	0.25138119	0.38553380	-0.52149646	-0.02073318	-0.60661379	-0.79680834	-0.12441443	-0.27937054
5354	53.53000000	-0.87770102	-0.35816914	0.08218374	-0.54853219	0.39980624	-0.69665928	-0.74210097	-0.35437436	-0.35289835	-0.83106629	-0.20679837	-0.14029184	-0.48882027	0.65981296	0.25746732	-0.51898134	0.26119266	0.37639661	-0.51882868	-0.01568800	-0.60985835	-0.80097019	-0.12069755	-0.27712306
5355	53.54000000	-0.88014139	-0.35676513	0.08432248	-0.54740339	0.39488956	-0.69685846	-0.74308042	-0.34488064	-0.35254808	-0.83355402	-0.20610827	-0.13949384	-0.48409363	0.66317507	0.25781341	-0.52117747	0.26916817	0.37290686	-0.51379096	-0.00942642	-0.61324022	-0.80433797	-0.11606314	-0.27138169
5356	53.55000000	-0.88517867	-0.34897958	0.08825359	-0.54436597	0.38458311	-0.70578900	-0.74458968	-0.34551252	-0.35143591	-0.83264695	-0.20448800	-0.13677493	-0.47734804	0.67131243	0.25538510	-0.51564291	0.27612643	0.36968702	-0.51008233	-0.00300181	-0.61194569	-0.80630498	-0.10727693	-0.26770691
5357	53.56000000	-0.88229914	-0.33980893	0.09627433	-0.55130342	0.37875570	-0.70426201	-0.74512374	-0.34557767	-0.34614809	-0.83465976	-0.20468428	-0.13041941	-0.46567189	0.67808811	0.24805776	-0.51326296	0.27923459	0.35768815	-0.51099062	0.00031849	-0.61102484	-0.81103361	-0.10146119	-0.26416634
5358	53.57000000	-0.88609401	-0.33550041	0.09871273	-0.55015185	0.37264398	-0.70382703	-0.74564834	-0.34026118	-0.33746511	-0.83529517	-0.20001580	-0.12283028	-0.46158161	0.68843734	0.24230899	-0.51692533	0.29596730	0.35477358	-0.51677843	0.00197643	-0.61272924	-0.81183424	-0.09841525	-0.25965633
5359	53.58000000	-0.88867591	-0.32595252	0.09861652	-0.54976479	0.35943659	-0.70474948	-0.74309535	-0.34558699	-0.33010455	-0.83524654	-0.20658927	-0.12009939	-0.45726179	0.69468167	0.23871055	-0.51386175	0.30509130	0.35157474	-0.52040384	0.00369780	-0.61455935	-0.81695233	-0.08692051	-0.25408598
5360	53.59000000	-0.88991333	-0.32009620	0.10459623	-0.54830243	0.35556923	-0.70414065	-0.74607228	-0.35244902	-0.32227654	-0.83341479	-0.20359261	-0.11240167	-0.44714445	0.70106019	0.23913711	-0.51393966	0.31084766	0.33757744	-0.51959669	-0.00355162	-0.60719310	-0.82305946	-0.07778724	-0.24276757
5361	53.60000000	-0.89255063	-0.31297489	0.10750849	-0.55229752	0.34586917	-0.70449929	-0.74539908	-0.36364960	-0.32154805	-0.83489901	-0.20671391	-0.10697680	-0.43552392	0.71442317	0.22995824	-0.51793796	0.32395831	0.33331409	-0.51424774	-0.00561639	-0.60462947	-0.82719107	-0.07417168	-0.22705817
5362	53.61000000	-0.89527053	-0.30745574	0.09962173	-0.55551673	0.33581080	-0.71316455	-0.74421082	-0.37173782	-0.31140094	-0.83346289	-0.20421883	-0.09713280	-0.42869396	0.72134378	0.22037236	-0.51457939	0.33231947	0.32390072	-0.52073231	-0.01029593	-0.60297628	-0.83380118	-0.06482258	-0.22542995
5363	53.62000000	-0.89478416	-0.30079122	0.10689327	-0.55959032	0.32617049	-0.71328264	-0.74321884	-0.38111338	-0.29841183	-0.83626471	-0.20205002	-0.10271209	-0.41703473	0.72676271	0.21689963	-0.51541295	0.33938652	0.31871987	-0.53257851	-0.02273178	-0.59144862	-0.83971442	-0.05464819	-0.21312562
5364	53.63000000	-0.90254385	-0.29057205	0.10851676	-0.55581129	0.31708589	-0.71498036	-0.73644666	-0.39898517	-0.27565732	-0.83649173	-0.19996403	-0.08891925	-0.40682748	0.73457009	0.21475074	-0.51567153	0.35243540	0.30298508	-0.56238447	-0.02307412	-0.55740947	-0.84162956	-0.04985939	-0.19514152
5365	53.64000000	-0.90309616	-0.27979760	0.10733140	-0.54935451	0.30858537	-0.71815649	-0.73546394	-0.40328574	-0.26947211	-0.83364559	-0.20615995	-0.07826427	-0.39757032	0.74670761	0.20813167	-0.51096152	0.35903867	0.29527096	-0.59861170	-0.04264080	-0.51838162	-0.84901130	-0.04255174	-0.18221817
5366	53.65000000	-0.90770350	-0.27007229	0.10105445	-0.54913938	0.30169664	-0.72164024	-0.74118801	-0.39389266	-0.26723408	-0.83152191	-0.20791228	-0.07154944	-0.38309251	0.74778979	0.20303811	-0.51167779	0.36466587	0.28248821	-0.62094939	-0.05782079	-0.49045318	-0.84644225	-0.03388888	-0.16502869
5367	53.66000000	-0.90806143	-0.26620831	0.10347430	-0.54321233	0.29731316	-0.72638425	-0.73851383	-0.39621253	-0.26696939	-0.83071152	-0.21433263	-0.06378155	-0.37819216	0.75978631	0.19638352	-0.51428182	0.36993201	0.27312091	-0.63531609	-0.06185100	-0.45974838	-0.85276010	-0.02298878	-0.14815233
5368	53.67000000	-0.91042219	-0.25537759	0.09729348	-0.53253816	0.30323705	-0.73042568	-0.73513658	-0.41655223	-0.25512030	-0.83106704	-0.21508648	-0.06644172	-0.36397920	0.76623235	0.20136548	-0.51829088	0.37336215	0.26129180	-0.65185645	-0.06547639	-0.44644631	-0.85454095	-0.01558230	-0.12158826
5369	53.68000000	-0.91381241	-0.25713861	0.09606914	-0.53557861	0.30100224	-0.72629567	-0.71701246	-0.44029713	-0.23854492	-0.82930672	-0.20335228	-0.07132836	-0.35032977	0.77070689	0.19679643	-0.52104691	0.36914267	0.25421098	-0.66363640	-0.06441535	-0.42255096	-0.85326371	-0.00751206	-0.09480460
5370	53.69000000	-0.91527998	-0.25033148	0.09560199	-0.53974474	0.30359118	-0.72838502	-0.70235228	-0.47279965	-0.21410141	-0.83160887	-0.18229553	-0.06668980	-0.33829550	0.77708128	0.20031017	-0.52376548	0.37348730	0.24822378	-0.66664227	-0.06562599	-0.41144555	-0.85482612	-0.00036946	-0.07029509
5371	53.70000000	-0.92037879	-0.24751459	0.09403257	-0.54152605	0.29831702	-0.73122964	-0.69828838	-0.49590177	-0.18377793	-0.84097631	-0.16196181	-0.06552095	-0.32449705	0.77701158	0.19549969	-0.53452852	0.37295094	0.24399801	-0.67990962	-0.07663626	-0.39370055	-0.86205564	0.01958670	-0.03540817
5372	53.71000000	-0.91780577	-0.24084701	0.09665603	-0.54191118	0.29598159	-0.72453457	-0.68861689	-0.50411510	-0.15802385	-0.84334612	-0.15707620	-0.06205124	-0.31139398	0.78329634	0.19128043	-0.53807270	0.36580006	0.23232111	-0.68256257	-0.07642759	-0.38745514	-0.86281919	0.03032981	-0.00556594
5373	53.72000000	-0.91897233	-0.24055005	0.10537243	-0.54339836	0.29119174	-0.72377390	-0.68179020	-0.52020428	-0.14447644	-0.84425686	-0.15264885	-0.04990165	-0.29876679	0.79172858	0.19186396	-0.54689206	0.36211474	0.22558983	-0.68330191	-0.08411562	-0.38321886	-0.86090770	0.03994354	0.03343000
5374	53.73000000	-0.92386117	-0.23615927	0.10759297	-0.54403281	0.29074128	-0.72733528	-0.67826932	-0.52615066	-0.12849819	-0.84635128	-0.14835151	-0.04877115	-0.28207651	0.79417093	0.19066394	-0.55285899	0.36197563	0.22899500	-0.69001035	-0.08576961	-0.37282110	-0.85568400	0.05568731	0.05936821
5375	53.74000000	-0.91808261	-0.23732370	0.10843997	-0.54333409	0.29110008	-0.72681079	-0.67054080	-0.54308503	-0.11203598	-0.84025535	-0.15148006	-0.04960611	-0.27555919	0.80001793	0.19515916	-0.56166658	0.35943752	0.22191994	-0.69369116	-0.08784449	-0.37293797	-0.85105295	0.06928741	0.08177267
5376	53.75000000	-0.91968661	-0.23779991	0.11187245	-0.53550664	0.28466025	-0.73198669	-0.66075147	-0.55504298	-0.10256757	-0.84035760	-0.16581412	-0.04019834	-0.25438315	0.80229738	0.20326458	-0.55785810	0.35117306	0.22097899	-0.69178907	-0.08870608	-0.37129858	-0.84632455	0.08282664	0.10389824
5377	53.76000000	-0.92015320	-0.23477769	0.10779662	-0.54326785	0.28383262	-0.73716122	-0.65763842	-0.55815125	-0.09174768	-0.83598726	-0.18185111	-0.03637620	-0.24226516	0.80040901	0.21446537	-0.56106191	0.34574094	0.22054296	-0.69285666	-0.09311480	-0.36539889	-0.84862482	0.09339326	0.12375454
5378	53.77000000	-0.91790290	-0.23566511	0.11151509	-0.54115954	0.27639126	-0.74424845	-0.65098987	-0.56513045	-0.09618638	-0.83171495	-0.19435469	-0.02612909	-0.23133546	0.79657395	0.23399056	-0.57197456	0.33832340	0.21988438	-0.69211151	-0.09736881	-0.36788154	-0.84171159	0.10879796	0.14382238
5379	53.78000000	-0.92414192	-0.23866798	0.11501669	-0.52909316	0.26706945	-0.74301823	-0.64249192	-0.57518721	-0.10181890	-0.82945908	-0.20762731	-0.02202687	-0.22146876	0.79214284	0.24779546	-0.57335949	0.32936761	0.21853460	-0.68959553	-0.09536045	-0.36925611	-0.83227131	0.11537983	0.16441118
5380	53.79000000	-0.92243160	-0.23615548	0.11021667	-0.53185892	0.25726611	-0.74758289	-0.64145448	-0.57340420	-0.11025055	-0.82807036	-0.21384125	-0.02104776	-0.21732242	0.78739204	0.26047341	-0.58659277	0.31998635	0.21650601	-0.68895224	-0.09636509	-0.36982796	-0.83140324	0.12539628	0.17996166
5381	53.80000000	-0.92243696	-0.23172481	0.11084603	-0.53662597	0.25970707	-0.74932972	-0.64020783	-0.57544259	-0.11094330	-0.81991965	-0.23039211	-0.01807544	-0.20959992	0.78596736	0.27111219	-0.58942522	0.31524069	0.21285197	-0.68990226	-0.09759766	-0.36418439	-0.83198310	0.12649401	0.17830122
